<svg width="24" height="24" viewBox="0 0 24 24" fill="none" xmlns="http://www.w3.org/2000/svg">
<path d="M12 24C5.3712 24 0 18.6288 0 12C0 5.3712 5.3712 -2.08616e-07 12 -2.08616e-07C18.6288 -2.08616e-07 24 5.3712 24 12C24 18.6288 18.6288 24 12 24ZM18.9456 16.872L11.9568 12.1536L5.0544 16.872H18.9456ZM4.8 16.416L10.4976 12.456L4.8 7.6848V16.416ZM4.9152 7.128L10.9824 12.1776L11.9664 11.5536L13.0224 12.288L19.0272 7.128H4.9152ZM19.2 7.6368L13.4928 12.5328L19.2 16.4832V7.6368Z" fill="white"/>
</svg>
