<svg width="30" height="30" viewBox="0 0 30 30" fill="none" xmlns="http://www.w3.org/2000/svg">
<path d="M15 0C23.2843 0 30 6.71573 30 15C30 23.2843 23.2843 30 15 30C6.71573 30 0 23.2843 0 15C0 6.71573 6.71573 0 15 0ZM10.1445 5.7998C6.7023 5.79993 3.7998 8.06561 3.7998 10.916V18.6846C3.8001 21.5348 6.70247 23.7997 10.1445 23.7998H19.8555C23.2975 23.7997 26.1999 21.5348 26.2002 18.6846V10.916C26.2002 8.06561 23.2977 5.79993 19.8555 5.7998H10.1445ZM7.83887 15.3037C8.15217 18.2969 11.2932 20.6143 15 20.6143C18.7068 20.6143 21.8478 18.2969 22.1611 15.3037H25.041V18.6846C25.0407 20.9014 22.7473 22.7928 19.8555 22.793H10.1445C7.25274 22.7928 4.95928 20.9014 4.95898 18.6846V15.3037H7.83887ZM14.2031 20.375C14.1653 20.3715 14.1275 20.3683 14.0898 20.3643C14.1275 20.3683 14.1653 20.3715 14.2031 20.375ZM25.8955 19.5811C25.8866 19.619 25.8772 19.6567 25.8672 19.6943C25.8771 19.6567 25.8867 19.619 25.8955 19.5811ZM15 9.99316C16.1921 9.99316 17.3124 10.2776 18.2939 10.7598C18.3537 10.9105 18.4334 11.0535 18.5293 11.1895C17.5523 10.5681 16.3219 10.2002 15 10.2002C11.8991 10.2002 9.29994 12.2225 9.2998 14.7998C9.2998 17.3772 11.899 19.4004 15 19.4004C18.101 19.4004 20.7002 17.3772 20.7002 14.7998C20.7001 13.7476 20.2667 12.7879 19.543 12.0205C19.7282 12.1035 19.9241 12.1694 20.1201 12.2168C20.7469 12.9896 21.0585 13.8668 21.0586 14.7998C21.0586 17.4114 18.3852 19.6064 15 19.6064C11.6148 19.6064 8.94141 17.4114 8.94141 14.7998C8.94154 12.1883 11.6149 9.99316 15 9.99316ZM25.9375 19.377C25.9319 19.408 25.9262 19.4389 25.9199 19.4697C25.9262 19.4389 25.932 19.408 25.9375 19.377ZM4.7998 19.2051C4.79562 19.1777 4.78967 19.1506 4.78613 19.123L4.78516 19.1084C4.78918 19.1408 4.79488 19.1729 4.7998 19.2051ZM25.2139 19.123C25.2103 19.1506 25.2044 19.1777 25.2002 19.2051C25.2051 19.1729 25.2108 19.1408 25.2148 19.1084L25.2139 19.123ZM25.9922 18.9355C25.9868 19.0191 25.9784 19.1021 25.9678 19.1846L25.9922 18.9355ZM15 11.207C17.5507 11.207 19.5409 12.8559 19.541 14.7998C19.541 16.7438 17.5507 18.3936 15 18.3936C12.4493 18.3936 10.459 16.7438 10.459 14.7998C10.4591 12.8559 12.4493 11.207 15 11.207ZM13.2549 14.9941C12.5057 14.9943 11.8037 15.5004 11.8037 16.1963C11.804 16.892 12.5059 17.3973 13.2549 17.3975C14.004 17.3975 14.7067 16.8921 14.707 16.1963C14.707 15.5003 14.0041 14.9941 13.2549 14.9941ZM13.2549 16.001C13.3431 16.001 13.4226 16.032 13.4766 16.0752C13.5311 16.1189 13.5479 16.1647 13.5479 16.1963C13.5477 16.2278 13.5308 16.273 13.4766 16.3164C13.4226 16.3596 13.3431 16.3906 13.2549 16.3906C13.1668 16.3906 13.0881 16.3595 13.0342 16.3164C12.9798 16.2729 12.9621 16.2279 12.9619 16.1963C12.9619 16.1647 12.9795 16.1189 13.0342 16.0752C13.0881 16.0321 13.1669 16.001 13.2549 16.001ZM20.4385 15.4619C20.3976 15.6784 20.3368 15.8897 20.2578 16.0947C20.3624 15.8231 20.4347 15.5402 20.4717 15.249L20.4385 15.4619ZM19.8555 6.80664C22.7474 6.80677 25.041 8.69899 25.041 10.916V14.2969H22.2012C22.1364 13.5748 21.8907 12.8802 21.4854 12.2461C21.9352 12.1547 22.3734 11.979 22.7109 11.709C23.2292 11.2944 23.4971 10.7303 23.4971 10.1572C23.4971 9.58411 23.2292 9.0201 22.7109 8.60547C22.1953 8.193 21.5139 7.99227 20.8418 7.99219C20.1695 7.99219 19.4874 8.19291 18.9717 8.60547C18.6349 8.87494 18.3728 9.24103 18.2646 9.63574C17.2698 9.23178 16.1537 9.01662 15.0381 9.0166C11.2932 9.0166 8.18846 11.3342 7.87695 14.3271H4.95898V10.916C4.95898 8.69899 7.25255 6.80677 10.1445 6.80664H19.8555ZM20.8418 8.96094C21.259 8.96101 21.6281 9.07199 21.9268 9.30957C22.207 9.54739 22.3389 9.84935 22.3389 10.1387C22.3387 10.4275 22.2075 10.7197 21.9307 10.9414C21.6314 11.1808 21.2605 11.2919 20.8418 11.292C20.4339 11.292 20.058 11.1567 19.748 10.9375C19.4551 10.7012 19.335 10.4255 19.335 10.127C19.335 9.83802 19.4844 9.55609 19.7578 9.30859C20.0563 9.0718 20.4252 8.96094 20.8418 8.96094ZM22.5283 10.2793C22.5233 10.3199 22.5171 10.3604 22.5078 10.4004C22.5171 10.3603 22.5233 10.3199 22.5283 10.2793ZM15.6367 10.4297C15.6749 10.4332 15.713 10.4372 15.751 10.4414C15.713 10.4373 15.6749 10.4332 15.6367 10.4297ZM19.1738 10.4297C19.1707 10.4175 19.1658 10.4058 19.1631 10.3936L19.1602 10.377C19.1639 10.3947 19.1692 10.4121 19.1738 10.4297ZM22.5371 10.1475C22.5368 10.1824 22.5347 10.2172 22.5312 10.252C22.5347 10.2172 22.5368 10.1824 22.5371 10.1475ZM22.5098 9.8877C22.5274 9.96796 22.5365 10.0489 22.5371 10.1299C22.5365 10.0489 22.5274 9.968 22.5098 9.8877ZM22.4727 9.75488C22.4843 9.78878 22.4935 9.82307 22.502 9.85742C22.4935 9.82306 22.4842 9.78878 22.4727 9.75488ZM19.3389 9.4873L19.4229 9.37207C19.4339 9.35828 19.4464 9.34559 19.458 9.33203C19.4148 9.38259 19.3742 9.43377 19.3389 9.4873ZM19.7598 9.06055C19.7149 9.08996 19.6705 9.12218 19.6279 9.15625C19.6705 9.12218 19.7139 9.08996 19.7588 9.06055H19.7598ZM20.042 8.91113C20.0861 8.89276 20.1311 8.87628 20.1768 8.86133L20.042 8.91113ZM20.2129 8.85059C20.2406 8.84211 20.2686 8.83439 20.2969 8.82715C20.2686 8.83433 20.2406 8.84216 20.2129 8.85059ZM21.1748 8.78418C21.1968 8.78735 21.2185 8.79206 21.2402 8.7959C21.2118 8.79088 21.1832 8.78611 21.1543 8.78223L21.1748 8.78418ZM20.4609 8.79297C20.4766 8.79034 20.492 8.78645 20.5078 8.78418L20.6729 8.76758C20.601 8.77256 20.5304 8.78137 20.4609 8.79297ZM22.417 9.61719C22.4362 9.65694 22.4522 9.69756 22.4668 9.73828C22.4522 9.69755 22.4362 9.65695 22.417 9.61719Z" fill="white"/>
</svg>
