<svg width="27" height="27" viewBox="0 0 27 27" fill="none" xmlns="http://www.w3.org/2000/svg">
<path d="M21.9375 0H5.0625C2.26758 0 0 2.26758 0 5.0625V21.9375C0 24.7324 2.26758 27 5.0625 27H21.9375C24.7324 27 27 24.7324 27 21.9375V5.0625C27 2.26758 24.7324 0 21.9375 0ZM8.34826 22.9192H4.15385L4.12951 10.3603H8.32392L8.34826 22.9192ZM6.14558 8.7174H6.12124C4.75015 8.7174 3.86584 7.77224 3.86584 6.59585C3.86584 5.39108 4.77855 4.47837 6.17398 4.47837C7.56941 4.47837 8.42533 5.39108 8.45373 6.59585C8.45373 7.77224 7.56535 8.7174 6.14558 8.7174ZM22.8908 22.9192H18.6599V16.0962C18.6599 14.4452 18.2218 13.3215 16.7452 13.3215C15.6175 13.3215 15.009 14.0801 14.7169 14.8143C14.6074 15.078 14.579 15.439 14.579 15.8081V22.9192H10.3278L10.3035 10.3603H14.5547L14.579 12.133C15.1226 11.2933 16.0272 10.1047 18.1934 10.1047C20.8788 10.1047 22.8867 11.8571 22.8867 15.6256V22.9192H22.8908Z" fill="white"/>
</svg>
