<svg xmlns="http://www.w3.org/2000/svg">
<symbol id="miniLogo" fill="currentColor" viewBox="0 0 54 37" >
<path d="M37.7051 8.93164L9.64355 36.9932L9.26953 36.6182L37.3301 8.55762L37.7051 8.93164ZM47.8848 16.1475C49.1898 16.1475 50.3205 16.363 51.2764 16.7949C52.2414 17.2177 52.9446 17.8248 53.3857 18.6152L52.1172 19.9111C51.6393 19.2495 51.033 18.7348 50.2979 18.3672C49.5627 17.9996 48.7677 17.8155 47.9131 17.8154C45.8819 17.8154 44.2502 18.5321 43.0186 19.9658C41.7961 21.3904 41.1846 23.4172 41.1846 26.0459C41.1846 31.7536 43.6253 34.6074 48.5059 34.6074C49.9946 34.6074 51.4605 34.2814 52.9033 33.6289L53.3447 35.2559C51.7179 35.936 50.0081 36.2754 48.2158 36.2754C42.2784 36.2753 39.3096 32.9115 39.3096 26.1836C39.3096 22.9945 40.0586 20.5265 41.5566 18.7803C43.0547 17.0248 45.1643 16.1475 47.8848 16.1475ZM35.3574 19.1895C35.3574 23.179 34.6511 26.4457 33.2393 28.9893L37.9766 34.3887H32.7773L30.7227 32.1338C28.6827 33.9014 26.0604 34.7852 22.8564 34.7852C20.4358 34.7852 18.4845 34.1308 17.0029 32.8213C16.699 32.5475 16.4265 32.2549 16.1855 31.9443L19.1367 28.9375C19.3415 29.3753 19.6426 29.7636 20.0391 30.1025C20.8724 30.7903 21.9706 31.1338 23.333 31.1338C25.295 31.1337 26.9229 30.5513 28.2168 29.3857L23.6328 24.3574L26.5596 21.375L30.5107 25.8799C31.2015 24.0687 31.5469 21.8384 31.5469 19.1895H35.3574ZM20.252 6.18457C21.4715 5.0675 23.1944 4.60599 25.4209 4.80078C26.6099 4.90481 27.5097 5.11065 28.1201 5.41895C28.7327 5.702 29.2098 5.93537 29.5508 6.11816C29.8916 6.30094 30.2165 6.52091 30.5254 6.77734C30.8343 7.03377 31.0851 7.23374 31.2764 7.37793C31.6567 7.6916 31.9625 7.98662 32.1934 8.26172L31.8564 8.61426C29.8861 6.65722 27.8884 5.59017 25.8643 5.41309C24.903 5.32901 24.0632 5.45972 23.3447 5.80469C22.6539 6.12657 22.1309 6.56495 21.7764 7.12012C21.1521 8.13618 20.7995 9.09998 20.7197 10.0107C20.5356 12.1156 21.9563 15.2604 24.9805 19.4443L23.5 20.9854C22.1264 19.1365 21.014 17.4513 20.1641 15.9287C18.5831 16.2238 17.3141 17.0302 16.3574 18.3486C15.4008 19.6671 14.8177 21.5282 14.6074 23.9316C14.4263 26.002 14.744 27.7762 15.5605 29.2529L14.2969 30.5674C12.6021 28.9363 11.8893 26.5892 12.1572 23.5264C12.3786 20.9963 13.1722 19.0642 14.5381 17.7305C15.9314 16.3739 17.7094 15.5733 19.8721 15.3291C18.6665 13.0821 18.1237 11.2754 18.2432 9.90918C18.3627 8.54297 19.0325 7.3016 20.252 6.18457ZM7.37402 1.2373L5.11426 1.43652V23.3682L7.37402 23.502C7.37389 23.5257 7.36284 23.6917 7.34082 24L0.661133 24.0332L0.694336 23.5684L2.42285 23.335C2.64432 23.3128 2.77699 23.1691 2.82129 22.9033H2.85449V1.90137H2.82129C2.77696 1.61354 2.64428 1.45871 2.42285 1.43652L0.694336 1.27051L0.661133 0.771484L7.34082 0.738281C7.34082 0.760435 7.35187 0.927151 7.37402 1.2373Z"/>
</symbol>
</svg>

<svg xmlns="http://www.w3.org/2000/svg">
<symbol id="fullLogo" viewBox="0 0 236 58" fill="currentColor">
<path d="M118.31 54.4751V44.463H122.529C123.597 44.463 124.536 44.6728 125.347 45.0923C126.167 45.5119 126.801 46.0983 127.249 46.8516C127.707 47.6049 127.936 48.4774 127.936 49.469C127.936 50.4607 127.707 51.3332 127.249 52.0865C126.801 52.8398 126.167 53.4262 125.347 53.8458C124.536 54.2653 123.597 54.4751 122.529 54.4751H118.31ZM119.74 53.2307H122.443C123.273 53.2307 123.988 53.0734 124.589 52.7587C125.199 52.4441 125.671 52.0054 126.005 51.4429C126.339 50.8707 126.506 50.2128 126.506 49.469C126.506 48.7157 126.339 48.0578 126.005 47.4952C125.671 46.9326 125.199 46.494 124.589 46.1793C123.988 45.8647 123.273 45.7073 122.443 45.7073H119.74V53.2307ZM129.926 54.4751V46.8945H131.299V54.4751H129.926ZM130.613 45.4356C130.346 45.4356 130.122 45.3498 129.941 45.1781C129.769 45.0065 129.683 44.7967 129.683 44.5488C129.683 44.2913 129.769 44.0768 129.941 43.9052C130.122 43.7335 130.346 43.6477 130.613 43.6477C130.88 43.6477 131.099 43.7335 131.271 43.9052C131.452 44.0673 131.543 44.2723 131.543 44.5202C131.543 44.7776 131.457 44.997 131.285 45.1781C131.114 45.3498 130.889 45.4356 130.613 45.4356ZM137.239 57.3357C136.543 57.3357 135.866 57.2356 135.208 57.0353C134.56 56.8446 134.031 56.5681 133.621 56.2058L134.279 55.1473C134.632 55.4525 135.065 55.6909 135.58 55.8625C136.095 56.0437 136.634 56.1342 137.197 56.1342C138.093 56.1342 138.751 55.9245 139.17 55.5049C139.59 55.0854 139.8 54.4465 139.8 53.5883V51.9864L139.943 50.4846L139.871 48.9684V46.8945H141.173V53.4453C141.173 54.7802 140.839 55.7624 140.172 56.3917C139.504 57.021 138.527 57.3357 137.239 57.3357ZM137.068 54.1604C136.334 54.1604 135.676 54.0079 135.094 53.7027C134.522 53.3881 134.064 52.9542 133.721 52.4012C133.387 51.8481 133.22 51.2092 133.22 50.4846C133.22 49.7503 133.387 49.1115 133.721 48.5679C134.064 48.0149 134.522 47.5858 135.094 47.2807C135.676 46.9755 136.334 46.823 137.068 46.823C137.716 46.823 138.307 46.9565 138.841 47.2235C139.375 47.4809 139.8 47.8814 140.114 48.4249C140.439 48.9684 140.601 49.655 140.601 50.4846C140.601 51.3046 140.439 51.9864 140.114 52.5299C139.8 53.0734 139.375 53.4834 138.841 53.7599C138.307 54.0269 137.716 54.1604 137.068 54.1604ZM137.225 52.959C137.731 52.959 138.179 52.8541 138.57 52.6443C138.961 52.4345 139.266 52.1437 139.485 51.7718C139.714 51.3999 139.828 50.9709 139.828 50.4846C139.828 49.9982 139.714 49.5692 139.485 49.1973C139.266 48.8254 138.961 48.5393 138.57 48.3391C138.179 48.1293 137.731 48.0244 137.225 48.0244C136.72 48.0244 136.267 48.1293 135.866 48.3391C135.475 48.5393 135.166 48.8254 134.937 49.1973C134.717 49.5692 134.608 49.9982 134.608 50.4846C134.608 50.9709 134.717 51.3999 134.937 51.7718C135.166 52.1437 135.475 52.4345 135.866 52.6443C136.267 52.8541 136.72 52.959 137.225 52.959ZM143.796 54.4751V46.8945H145.17V54.4751H143.796ZM144.483 45.4356C144.216 45.4356 143.992 45.3498 143.811 45.1781C143.639 45.0065 143.553 44.7967 143.553 44.5488C143.553 44.2913 143.639 44.0768 143.811 43.9052C143.992 43.7335 144.216 43.6477 144.483 43.6477C144.75 43.6477 144.969 43.7335 145.141 43.9052C145.322 44.0673 145.413 44.2723 145.413 44.5202C145.413 44.7776 145.327 44.997 145.155 45.1781C144.984 45.3498 144.759 45.4356 144.483 45.4356ZM150.394 54.5609C149.632 54.5609 149.04 54.3559 148.621 53.9459C148.201 53.5359 147.991 52.9494 147.991 52.1866V45.2353H149.365V52.1294C149.365 52.5394 149.465 52.8541 149.665 53.0734C149.875 53.2927 150.17 53.4024 150.552 53.4024C150.981 53.4024 151.338 53.2832 151.624 53.0448L152.054 54.0317C151.844 54.2129 151.591 54.3464 151.295 54.4322C151.009 54.518 150.709 54.5609 150.394 54.5609ZM146.704 48.0244V46.8945H151.539V48.0244H146.704ZM158.419 54.4751V52.8732L158.348 52.5728V49.8409C158.348 49.2593 158.176 48.8111 157.833 48.4964C157.499 48.1722 156.994 48.0101 156.317 48.0101C155.869 48.0101 155.43 48.0864 155.001 48.239C154.572 48.382 154.209 48.5775 153.914 48.8254L153.342 47.7956C153.733 47.4809 154.2 47.2425 154.743 47.0804C155.296 46.9088 155.873 46.823 156.474 46.823C157.513 46.823 158.314 47.0757 158.877 47.581C159.44 48.0864 159.721 48.8588 159.721 49.8981V54.4751H158.419ZM155.931 54.5609C155.368 54.5609 154.872 54.4656 154.443 54.2749C154.023 54.0841 153.699 53.8219 153.47 53.4882C153.242 53.1449 153.127 52.7587 153.127 52.3296C153.127 51.9196 153.222 51.5477 153.413 51.214C153.613 50.8803 153.933 50.6133 154.371 50.413C154.82 50.2128 155.42 50.1127 156.174 50.1127H158.577V51.0996H156.231C155.544 51.0996 155.082 51.214 154.843 51.4429C154.605 51.6717 154.486 51.9482 154.486 52.2724C154.486 52.6443 154.634 52.9447 154.929 53.1735C155.225 53.3928 155.635 53.5025 156.159 53.5025C156.674 53.5025 157.122 53.3881 157.504 53.1592C157.895 52.9304 158.176 52.5966 158.348 52.158L158.619 53.102C158.438 53.5502 158.119 53.9077 157.661 54.1747C157.203 54.4322 156.627 54.5609 155.931 54.5609ZM162.262 54.4751V43.8622H163.635V54.4751H162.262ZM173.216 54.5895C172.453 54.5895 171.724 54.4751 171.027 54.2462C170.331 54.0079 169.783 53.7027 169.383 53.3309L169.912 52.2152C170.293 52.549 170.78 52.8255 171.371 53.0448C171.962 53.2641 172.577 53.3738 173.216 53.3738C173.798 53.3738 174.27 53.307 174.632 53.1735C174.994 53.04 175.261 52.8589 175.433 52.63C175.604 52.3916 175.69 52.1246 175.69 51.829C175.69 51.4858 175.576 51.2092 175.347 50.9995C175.128 50.7897 174.837 50.6228 174.475 50.4989C174.122 50.3654 173.731 50.2509 173.302 50.1556C172.873 50.0602 172.439 49.9506 172 49.8266C171.571 49.6931 171.175 49.5262 170.813 49.326C170.46 49.1258 170.174 48.8588 169.955 48.525C169.735 48.1818 169.626 47.7431 169.626 47.2092C169.626 46.6942 169.759 46.2222 170.026 45.7932C170.303 45.3545 170.722 45.0065 171.285 44.749C171.857 44.482 172.582 44.3486 173.459 44.3486C174.041 44.3486 174.618 44.4248 175.19 44.5774C175.762 44.73 176.258 44.9493 176.677 45.2353L176.205 46.3796C175.776 46.0935 175.323 45.8885 174.846 45.7646C174.37 45.6311 173.907 45.5643 173.459 45.5643C172.896 45.5643 172.434 45.6358 172.072 45.7789C171.709 45.9219 171.442 46.1126 171.271 46.351C171.109 46.5894 171.027 46.8563 171.027 47.1519C171.027 47.5048 171.137 47.786 171.356 47.9958C171.585 48.2056 171.876 48.3725 172.229 48.4964C172.591 48.6204 172.987 48.7348 173.416 48.8397C173.845 48.9351 174.274 49.0447 174.703 49.1687C175.142 49.2926 175.538 49.4547 175.891 49.655C176.253 49.8552 176.544 50.1222 176.763 50.4559C176.982 50.7897 177.092 51.2188 177.092 51.7432C177.092 52.2486 176.954 52.7206 176.677 53.1592C176.401 53.5883 175.972 53.9364 175.39 54.2033C174.818 54.4608 174.093 54.5895 173.216 54.5895ZM181.584 54.5609C180.822 54.5609 180.23 54.3559 179.811 53.9459C179.391 53.5359 179.182 52.9494 179.182 52.1866V45.2353H180.555V52.1294C180.555 52.5394 180.655 52.8541 180.855 53.0734C181.065 53.2927 181.36 53.4024 181.742 53.4024C182.171 53.4024 182.528 53.2832 182.815 53.0448L183.244 54.0317C183.034 54.2129 182.781 54.3464 182.486 54.4322C182.199 54.518 181.899 54.5609 181.584 54.5609ZM177.894 48.0244V46.8945H182.729V48.0244H177.894ZM188.093 54.5609C187.445 54.5609 186.873 54.4417 186.377 54.2033C185.891 53.965 185.509 53.6026 185.233 53.1163C184.966 52.6205 184.832 52.0007 184.832 51.2569V46.8945H186.205V51.0996C186.205 51.8433 186.382 52.4012 186.734 52.773C187.097 53.1449 187.602 53.3309 188.251 53.3309C188.727 53.3309 189.142 53.2355 189.495 53.0448C189.848 52.8446 190.12 52.5585 190.31 52.1866C190.501 51.8052 190.596 51.3475 190.596 50.8135V46.8945H191.969V54.4751H190.668V52.4298L190.882 52.9733C190.634 53.4787 190.263 53.8696 189.767 54.1461C189.271 54.4227 188.713 54.5609 188.093 54.5609ZM197.716 54.5609C196.981 54.5609 196.324 54.3988 195.742 54.0746C195.17 53.7504 194.717 53.2975 194.383 52.7158C194.049 52.1342 193.883 51.4572 193.883 50.6848C193.883 49.9124 194.049 49.2402 194.383 48.6681C194.717 48.0864 195.17 47.6335 195.742 47.3093C196.324 46.9851 196.981 46.823 197.716 46.823C198.355 46.823 198.931 46.966 199.446 47.2521C199.961 47.5381 200.371 47.9672 200.676 48.5393C200.991 49.1115 201.148 49.8266 201.148 50.6848C201.148 51.543 200.996 52.2581 200.691 52.8302C200.395 53.4024 199.99 53.8362 199.475 54.1318C198.96 54.4179 198.374 54.5609 197.716 54.5609ZM197.83 53.3595C198.307 53.3595 198.736 53.2498 199.117 53.0305C199.508 52.8112 199.813 52.5013 200.033 52.1008C200.262 51.6908 200.376 51.2188 200.376 50.6848C200.376 50.1413 200.262 49.674 200.033 49.2831C199.813 48.8826 199.508 48.5727 199.117 48.3534C198.736 48.1341 198.307 48.0244 197.83 48.0244C197.344 48.0244 196.91 48.1341 196.529 48.3534C196.147 48.5727 195.842 48.8826 195.613 49.2831C195.384 49.674 195.27 50.1413 195.27 50.6848C195.27 51.2188 195.384 51.6908 195.613 52.1008C195.842 52.5013 196.147 52.8112 196.529 53.0305C196.91 53.2498 197.344 53.3595 197.83 53.3595ZM200.419 54.4751V52.4298L200.505 50.6705L200.362 48.9112V43.8622H201.735V54.4751H200.419ZM204.333 54.4751V46.8945H205.706V54.4751H204.333ZM205.019 45.4356C204.752 45.4356 204.528 45.3498 204.347 45.1781C204.176 45.0065 204.09 44.7967 204.09 44.5488C204.09 44.2913 204.176 44.0768 204.347 43.9052C204.528 43.7335 204.752 43.6477 205.019 43.6477C205.286 43.6477 205.506 43.7335 205.677 43.9052C205.859 44.0673 205.949 44.2723 205.949 44.5202C205.949 44.7776 205.863 44.997 205.692 45.1781C205.52 45.3498 205.296 45.4356 205.019 45.4356ZM211.574 54.5609C210.812 54.5609 210.135 54.394 209.543 54.0603C208.952 53.7266 208.485 53.2689 208.142 52.6872C207.798 52.096 207.627 51.4286 207.627 50.6848C207.627 49.9315 207.798 49.264 208.142 48.6824C208.485 48.1007 208.952 47.6478 209.543 47.3236C210.135 46.9898 210.812 46.823 211.574 46.823C212.328 46.823 213 46.9898 213.591 47.3236C214.192 47.6478 214.659 48.1007 214.993 48.6824C215.336 49.2545 215.508 49.922 215.508 50.6848C215.508 51.4381 215.336 52.1056 214.993 52.6872C214.659 53.2689 214.192 53.7266 213.591 54.0603C213 54.394 212.328 54.5609 211.574 54.5609ZM211.574 53.3595C212.061 53.3595 212.495 53.2498 212.876 53.0305C213.267 52.8112 213.572 52.5013 213.791 52.1008C214.011 51.6908 214.12 51.2188 214.12 50.6848C214.12 50.1413 214.011 49.674 213.791 49.2831C213.572 48.8826 213.267 48.5727 212.876 48.3534C212.495 48.1341 212.061 48.0244 211.574 48.0244C211.088 48.0244 210.654 48.1341 210.273 48.3534C209.891 48.5727 209.586 48.8826 209.357 49.2831C209.129 49.674 209.014 50.1413 209.014 50.6848C209.014 51.2188 209.129 51.6908 209.357 52.1008C209.586 52.5013 209.891 52.8112 210.273 53.0305C210.654 53.2498 211.088 53.3595 211.574 53.3595Z" fill="currrentColor"/>
<path d="M89.6748 5.54983L52.3662 42.8584L51.8691 42.3604L89.1777 5.05276L89.6748 5.54983ZM86.5537 19.1875C86.5537 24.4918 85.6153 28.8351 83.7383 32.2168L90.0361 39.3955H83.124L80.3916 36.3985C77.6795 38.7484 74.1931 39.9229 69.9336 39.9229C66.7153 39.9228 64.1211 39.0526 62.1514 37.3116C61.7474 36.9476 61.3848 36.5585 61.0645 36.1455L64.9883 32.1485C65.2606 32.7305 65.6605 33.2468 66.1875 33.6973C67.2955 34.6118 68.7559 35.0694 70.5674 35.0694C73.1759 35.0693 75.3402 34.2938 77.0605 32.7442L70.9658 26.0586L74.8564 22.0938L80.1113 28.083C81.0297 25.675 81.4883 22.7095 81.4883 19.1875H86.5537ZM104.317 6.87015C106.21 6.87019 107.858 7.17324 109.262 7.77835C110.665 8.37074 111.69 9.22065 112.334 10.3282L109.475 13.168C108.895 12.2923 108.154 11.6162 107.253 11.1397C106.364 10.6632 105.399 10.4248 104.355 10.4248C101.87 10.4249 99.8739 11.3204 98.3672 13.1104C96.8735 14.9004 96.127 17.4437 96.127 20.7403C96.127 27.9261 99.2303 31.5186 105.438 31.5186C107.305 31.5186 109.146 31.133 110.962 30.3604L111.851 33.7598C109.61 34.6355 107.253 35.0733 104.78 35.0733C96.2553 35.0732 91.9932 30.36 91.9932 20.9336C91.9932 16.4651 93.0682 13.0074 95.2188 10.5606C97.3694 8.10088 100.402 6.87015 104.317 6.87015ZM125.103 13.8242C127.948 13.8244 130.15 14.7522 131.708 16.6065C133.279 18.448 134.065 21.0623 134.065 24.4492C134.065 27.8232 133.279 30.4376 131.708 32.292C130.15 34.1461 127.948 35.0732 125.103 35.0733C122.27 35.0733 120.067 34.1462 118.496 32.292C116.925 30.4376 116.139 27.8232 116.139 24.4492C116.139 21.0623 116.925 18.448 118.496 16.6065C120.067 14.7521 122.269 13.8242 125.103 13.8242ZM156.627 34.6875L152.957 34.8799L152.545 30.9785H152.146C152.017 32.2661 151.47 33.2702 150.504 33.9912C149.551 34.7124 148.289 35.0733 146.718 35.0733C144.039 35.0733 142.004 34.1911 140.613 32.4268C139.236 30.6626 138.547 28.0678 138.547 24.6426C138.547 21.0883 139.235 18.3961 140.613 16.5674C142.004 14.7388 144.039 13.8243 146.718 13.8242C148.25 13.8242 149.493 14.1851 150.446 14.9063C151.412 15.6274 151.978 16.6322 152.146 17.92H152.532V5.71194H156.627V34.6875ZM171.54 13.8242C174.309 13.8242 176.446 14.6619 177.953 16.336C179.473 18.0101 180.232 20.444 180.232 23.6377C180.232 24.5777 180.194 25.4534 180.117 26.2647H166.284C166.566 27.6539 167.159 28.7744 168.063 29.626C169.39 30.8622 171.27 31.4805 173.704 31.4805C174.554 31.4805 175.391 31.4349 176.215 31.3448C177.039 31.2418 177.876 31.1069 178.726 30.9395L179.229 34.5323C178.018 34.764 176.911 34.9122 175.906 34.9766C174.902 35.041 174.013 35.0733 173.24 35.0733C169.75 35.0733 167.052 34.1588 165.146 32.3301C163.253 30.4886 162.307 27.8486 162.307 24.4102C162.307 21.062 163.112 18.4609 164.722 16.6065C166.331 14.7522 168.604 13.8243 171.54 13.8242ZM66.4707 1.89749C68.0921 0.412362 70.3836 -0.201335 73.3438 0.0576473C74.9245 0.195983 76.1212 0.46999 76.9326 0.879913C77.747 1.25619 78.3807 1.56659 78.834 1.8096C79.2872 2.05261 79.7191 2.34464 80.1299 2.68558C80.5407 3.02656 80.8735 3.29267 81.1279 3.48441C81.6337 3.90149 82.0397 4.29341 82.3467 4.65921L81.8994 5.12796C79.2798 2.52608 76.6237 1.10757 73.9326 0.8721C72.6547 0.760363 71.5382 0.934031 70.583 1.39261C69.6643 1.82066 68.9684 2.40426 68.4971 3.14261C67.6672 4.49345 67.1997 5.77453 67.0938 6.98538C66.849 9.78389 68.7371 13.9648 72.7578 19.5274L70.7891 21.5762C68.9628 19.118 67.4845 16.8769 66.3545 14.8526C64.2525 15.2449 62.5649 16.3174 61.293 18.0703C60.0211 19.8233 59.2454 22.2978 58.9658 25.4932C58.725 28.2458 59.1478 30.6041 60.2334 32.5674L58.5547 34.3155C56.3012 32.1469 55.3517 29.0265 55.708 24.9541C56.0023 21.5904 57.0581 19.0222 58.874 17.2491C60.7267 15.4452 63.0911 14.3803 65.9668 14.0557C64.3639 11.0682 63.6419 8.66614 63.8008 6.84964C63.9597 5.03329 64.8495 3.38257 66.4707 1.89749ZM7.99121 4.48245L5.30078 4.71976V30.8301L7.99121 30.9883C7.99121 31.0147 7.97852 31.2128 7.95215 31.5821L0 31.6211L0.0390625 31.0674L2.09668 30.791C2.36042 30.7647 2.51854 30.5929 2.57129 30.2764H2.61133V5.27347H2.57129C2.51849 4.93081 2.36034 4.74612 2.09668 4.71976L0.0390625 4.52249L0 3.92874L7.95215 3.8887C7.95215 3.91507 7.96484 4.11328 7.99121 4.48245ZM21.7871 11.6826C23.7124 11.6827 25.1765 12.0653 26.1787 12.8301C26.627 13.173 27.0224 13.7139 27.3652 14.4522C27.7344 15.1642 27.9189 16.0213 27.9189 17.0235V30.791L30.8857 30.9883C30.8857 31.0147 30.8731 31.2128 30.8467 31.5821L22.9346 31.6211C22.9346 31.384 22.9473 31.1992 22.9736 31.0674L25.0312 30.791C25.2421 30.7646 25.3476 30.5799 25.3477 30.2373V18.0127C25.3477 16.9578 25.2022 16.0608 24.9121 15.3223C24.6484 14.584 24.3457 14.0431 24.0029 13.7002C23.6601 13.3574 23.2374 13.0938 22.7363 12.9092C22.1562 12.6983 21.5498 12.5928 20.917 12.5928C19.3346 12.6192 17.5542 13.239 15.5762 14.4522V30.791L18.543 30.9883C18.543 31.0147 18.5303 31.2128 18.5039 31.5821L10.5518 31.6211L10.5908 31.0674L12.6484 30.791C12.8857 30.7647 13.0048 30.5799 13.0049 30.2373V13.1065C12.9522 12.896 12.8728 12.7904 12.7676 12.7901L10.3535 12.711L10.3936 12.1573C12.0548 11.9199 13.1756 11.8018 13.7559 11.8018C14.8106 11.8018 15.4041 12.2628 15.5361 13.1856H15.5762V14.0166C17.7388 12.5398 19.8091 11.7618 21.7871 11.6826ZM36.7539 1.91116C37.3867 1.91122 37.8349 2.08301 38.0986 2.42581C38.3886 2.7686 38.5342 3.13772 38.5342 3.53323V30.791L41.501 30.9883C41.501 31.0147 41.4873 31.2128 41.4609 31.5821L33.5098 31.6211L33.5488 31.0674L35.6064 30.791C35.7909 30.7647 35.9091 30.6326 35.9619 30.3955V3.33499C35.9619 3.04506 35.8828 2.90042 35.7246 2.90042L33.3115 2.82132L33.3516 2.26663C35.013 2.02929 36.1473 1.91116 36.7539 1.91116ZM147.626 17.3018C145.978 17.3018 144.728 17.92 143.878 19.1563C143.028 20.3926 142.604 22.2217 142.604 24.6426C142.604 26.9347 143.028 28.6671 143.878 29.8389C144.728 31.0107 145.978 31.5967 147.626 31.5967C149.236 31.5966 150.452 31.0487 151.276 29.9541C152.113 28.8595 152.532 27.2565 152.532 25.1446V23.7539L152.527 23.3633C152.478 21.4431 152.061 19.9696 151.276 18.9434C150.452 17.849 149.235 17.3019 147.626 17.3018ZM51.2334 11.8409C51.2334 11.8672 51.2461 12.0654 51.2725 12.4346L46.7627 12.711L40.1162 19.9512L49.6504 30.791L52.3799 30.9883C52.3799 31.0147 52.3672 31.2128 52.3408 31.5821H47.3564L38.5342 21.0586L45.3379 13.1856C45.3378 12.843 45.2324 12.6582 45.0215 12.6319L42.9648 12.3555C42.9385 12.2237 42.9248 12.039 42.9248 11.8018L51.2334 11.8409ZM125.103 17.4951C123.596 17.4951 122.43 18.1 121.605 19.3106C120.794 20.5082 120.389 22.2214 120.389 24.4492C120.389 26.6639 120.794 28.3765 121.605 29.5869C122.43 30.7975 123.596 31.4034 125.103 31.4034C126.609 31.4032 127.768 30.7973 128.579 29.5869C129.403 28.3765 129.815 26.664 129.815 24.4492C129.815 22.2214 129.403 20.5082 128.579 19.3106C127.768 18.1002 126.609 17.4953 125.103 17.4951ZM171.579 17.418C169.841 17.418 168.488 18.0099 167.522 19.1944C166.735 20.1737 166.273 21.4878 166.137 23.1358H176.523C176.523 21.2942 176.086 19.884 175.21 18.9053C174.334 17.9138 173.124 17.4181 171.579 17.418Z" fill="currentColor"/>
</symbol>
</svg>

<svg xmlns="http://www.w3.org/2000/svg">
<symbol id="watermark" viewBox="0 0 251 250" fill="currentColor">
<path d="M97.9355 10.8329C108.151 2.35468 122.585 -1.14551 141.236 0.332942C151.198 1.12257 158.734 2.68801 163.848 5.02825C168.979 7.17655 172.974 8.9436 175.83 10.331C178.686 11.7183 181.408 13.3854 183.996 15.332C186.585 17.2786 188.68 18.7999 190.283 19.8945C193.47 22.2756 196.031 24.5103 197.965 26.5986L195.144 29.2773C178.638 14.424 161.908 6.32553 144.952 4.98138C136.898 4.34296 129.861 5.33321 123.842 7.95208C118.053 10.3957 113.674 13.7253 110.704 17.9404C105.474 25.6528 102.526 32.9658 101.858 39.8788C100.316 55.8543 112.211 79.7193 137.544 111.474L126.354 122.029L235.102 23.5009L250.033 37.0292L151.201 126.573L183.877 160.317C189.663 146.571 192.557 129.645 192.557 109.539H224.471C224.471 139.82 218.557 164.613 206.729 183.918L246.411 224.896H202.862L185.645 207.785C168.556 221.201 146.593 227.909 119.754 227.909C99.4759 227.909 83.1314 222.939 70.7207 213C68.1751 210.922 65.8928 208.704 63.874 206.347L88.5967 183.525C90.3123 186.848 92.8304 189.796 96.1514 192.368C103.132 197.589 112.33 200.199 123.743 200.199C140.18 200.199 153.818 195.775 164.658 186.929L126.473 148.978L14.9678 250.006L0.0371094 236.477L46.4424 194.432C33.4068 182.127 27.9672 164.802 30.125 142.456C31.9793 123.253 38.6271 108.59 50.0693 98.4677C61.7421 88.17 76.6382 82.0945 94.7568 80.2411C84.6574 63.1865 80.1081 49.4741 81.1094 39.1044C82.1107 28.7348 87.7199 19.3112 97.9355 10.8329ZM97.2012 84.788C83.9572 87.0277 73.3276 93.1518 65.3135 103.159C57.2996 113.166 52.412 127.291 50.6504 145.534C49.207 160.482 51.5481 173.39 57.668 184.261L125.12 123.147C113.623 109.124 104.317 96.3374 97.2012 84.788Z" fill-opacity="0.3"/>
</symbol>
</svg>
