<svg id="miniLogo" fill="currentColor" width="54" height="37" viewBox="0 0 54 37" xmlns="http://www.w3.org/2000/svg">
<path d="M37.7051 8.93164L9.64355 36.9932L9.26953 36.6182L37.3301 8.55762L37.7051 8.93164ZM47.8848 16.1475C49.1898 16.1475 50.3205 16.363 51.2764 16.7949C52.2414 17.2177 52.9446 17.8248 53.3857 18.6152L52.1172 19.9111C51.6393 19.2495 51.033 18.7348 50.2979 18.3672C49.5627 17.9996 48.7677 17.8155 47.9131 17.8154C45.8819 17.8154 44.2502 18.5321 43.0186 19.9658C41.7961 21.3904 41.1846 23.4172 41.1846 26.0459C41.1846 31.7536 43.6253 34.6074 48.5059 34.6074C49.9946 34.6074 51.4605 34.2814 52.9033 33.6289L53.3447 35.2559C51.7179 35.936 50.0081 36.2754 48.2158 36.2754C42.2784 36.2753 39.3096 32.9115 39.3096 26.1836C39.3096 22.9945 40.0586 20.5265 41.5566 18.7803C43.0547 17.0248 45.1643 16.1475 47.8848 16.1475ZM35.3574 19.1895C35.3574 23.179 34.6511 26.4457 33.2393 28.9893L37.9766 34.3887H32.7773L30.7227 32.1338C28.6827 33.9014 26.0604 34.7852 22.8564 34.7852C20.4358 34.7852 18.4845 34.1308 17.0029 32.8213C16.699 32.5475 16.4265 32.2549 16.1855 31.9443L19.1367 28.9375C19.3415 29.3753 19.6426 29.7636 20.0391 30.1025C20.8724 30.7903 21.9706 31.1338 23.333 31.1338C25.295 31.1337 26.9229 30.5513 28.2168 29.3857L23.6328 24.3574L26.5596 21.375L30.5107 25.8799C31.2015 24.0687 31.5469 21.8384 31.5469 19.1895H35.3574ZM20.252 6.18457C21.4715 5.0675 23.1944 4.60599 25.4209 4.80078C26.6099 4.90481 27.5097 5.11065 28.1201 5.41895C28.7327 5.702 29.2098 5.93537 29.5508 6.11816C29.8916 6.30094 30.2165 6.52091 30.5254 6.77734C30.8343 7.03377 31.0851 7.23374 31.2764 7.37793C31.6567 7.6916 31.9625 7.98662 32.1934 8.26172L31.8564 8.61426C29.8861 6.65722 27.8884 5.59017 25.8643 5.41309C24.903 5.32901 24.0632 5.45972 23.3447 5.80469C22.6539 6.12657 22.1309 6.56495 21.7764 7.12012C21.1521 8.13618 20.7995 9.09998 20.7197 10.0107C20.5356 12.1156 21.9563 15.2604 24.9805 19.4443L23.5 20.9854C22.1264 19.1365 21.014 17.4513 20.1641 15.9287C18.5831 16.2238 17.3141 17.0302 16.3574 18.3486C15.4008 19.6671 14.8177 21.5282 14.6074 23.9316C14.4263 26.002 14.744 27.7762 15.5605 29.2529L14.2969 30.5674C12.6021 28.9363 11.8893 26.5892 12.1572 23.5264C12.3786 20.9963 13.1722 19.0642 14.5381 17.7305C15.9314 16.3739 17.7094 15.5733 19.8721 15.3291C18.6665 13.0821 18.1237 11.2754 18.2432 9.90918C18.3627 8.54297 19.0325 7.3016 20.252 6.18457ZM7.37402 1.2373L5.11426 1.43652V23.3682L7.37402 23.502C7.37389 23.5257 7.36284 23.6917 7.34082 24L0.661133 24.0332L0.694336 23.5684L2.42285 23.335C2.64432 23.3128 2.77699 23.1691 2.82129 22.9033H2.85449V1.90137H2.82129C2.77696 1.61354 2.64428 1.45871 2.42285 1.43652L0.694336 1.27051L0.661133 0.771484L7.34082 0.738281C7.34082 0.760435 7.35187 0.927151 7.37402 1.2373Z"/>
</svg>
