<svg width="24" height="22" viewBox="0 0 24 22" fill="none" xmlns="http://www.w3.org/2000/svg">
<path d="M23.8719 17.3434C22.7575 15.2108 20.8568 13.8194 18.1417 13.1984C17.7338 13.1051 17.3005 13.1978 16.9749 13.4416L14.7199 15.1307C14.2795 15.4604 13.6572 15.5029 13.1733 15.2293C10.7878 13.8804 8.85773 12.1112 7.38623 9.92452C7.08774 9.48093 7.13406 8.91043 7.49384 8.5068L9.3364 6.43967C9.6024 6.14125 9.70349 5.74403 9.60172 5.37013C8.92428 2.88122 7.40638 1.13892 5.07988 0.117434C4.70454 -0.0473594 4.26182 -0.0381595 3.89471 0.141538C2.72483 0.714286 1.60557 1.36232 0.545195 2.09102C0.139171 2.37006 -0.0656939 2.83144 0.0187813 3.2901C0.781065 7.42852 3.22044 11.7805 7.1845 15.4142C11.1486 19.048 15.8962 21.284 20.4108 21.9828C20.9112 22.0602 21.4145 21.8724 21.7189 21.5002C22.5138 20.5282 23.2208 19.5022 23.8456 18.4299C24.0416 18.0933 24.0517 17.6875 23.8719 17.3434Z" fill="white"/>
</svg>
