<svg width="251" height="250" viewBox="0 0 251 250" fill="none" xmlns="http://www.w3.org/2000/svg">
<path d="M97.9355 10.8329C108.151 2.35468 122.585 -1.14551 141.236 0.332942C151.198 1.12257 158.734 2.68801 163.848 5.02825C168.979 7.17655 172.974 8.9436 175.83 10.331C178.686 11.7183 181.408 13.3854 183.996 15.332C186.585 17.2786 188.68 18.7999 190.283 19.8945C193.47 22.2756 196.031 24.5103 197.965 26.5986L195.144 29.2773C178.638 14.424 161.908 6.32553 144.952 4.98138C136.898 4.34296 129.861 5.33321 123.842 7.95208C118.053 10.3957 113.674 13.7253 110.704 17.9404C105.474 25.6528 102.526 32.9658 101.858 39.8788C100.316 55.8543 112.211 79.7193 137.544 111.474L126.354 122.029L235.102 23.5009L250.033 37.0292L151.201 126.573L183.877 160.317C189.663 146.571 192.557 129.645 192.557 109.539H224.471C224.471 139.82 218.557 164.613 206.729 183.918L246.411 224.896H202.862L185.645 207.785C168.556 221.201 146.593 227.909 119.754 227.909C99.4759 227.909 83.1314 222.939 70.7207 213C68.1751 210.922 65.8928 208.704 63.874 206.347L88.5967 183.525C90.3123 186.848 92.8304 189.796 96.1514 192.368C103.132 197.589 112.33 200.199 123.743 200.199C140.18 200.199 153.818 195.775 164.658 186.929L126.473 148.978L14.9678 250.006L0.0371094 236.477L46.4424 194.432C33.4068 182.127 27.9672 164.802 30.125 142.456C31.9793 123.253 38.6271 108.59 50.0693 98.4677C61.7421 88.17 76.6382 82.0945 94.7568 80.2411C84.6574 63.1865 80.1081 49.4741 81.1094 39.1044C82.1107 28.7348 87.7199 19.3112 97.9355 10.8329ZM97.2012 84.788C83.9572 87.0277 73.3276 93.1518 65.3135 103.159C57.2996 113.166 52.412 127.291 50.6504 145.534C49.207 160.482 51.5481 173.39 57.668 184.261L125.12 123.147C113.623 109.124 104.317 96.3374 97.2012 84.788Z" fill="#C9C9C9" fill-opacity="0.3"/>
</svg>
