<svg width="412" height="206" viewBox="0 0 412 206" fill="none" xmlns="http://www.w3.org/2000/svg">
<g clip-path="url(#clip0_653_236)">
<path opacity="0.25" d="M-76.9718 161.566L-73.3936 178.4C-52.0087 182.293 -28.2726 181.037 -6.20159 174.761C22.3412 166.653 47.3325 150.721 76.0117 143.032C106.065 134.987 138.039 136.264 168.541 136.767C198.442 137.253 227.384 133.716 255.734 123.205C270.149 117.861 283.103 110.607 296.455 103.398C332.202 84.0959 379.998 59.0026 420.964 75.6702L416.909 56.5885L-76.9718 161.566Z" fill="#50E3C2" fill-opacity="0.15"/>
<path opacity="0.5" d="M-76.9718 161.566L-75.7497 167.316C-68.7675 173.855 -61.2008 179.826 -51.7747 183.596C-27.4567 193.335 -0.482933 187.499 22.5371 175.224C34.5728 168.808 45.2529 160.487 56.3657 152.906C71.7383 142.416 87.682 128.765 106.372 123.397C121.075 119.189 136.28 120.621 149.392 126.249C164.43 132.703 179.833 143.345 197.685 143.731C215.163 144.117 230.649 134.182 244.838 124.48C259.028 114.778 272.757 103.721 289.631 98.5953C313.762 91.2426 338.022 97.0062 362.147 97.9447C375.246 98.4521 386.906 95.0271 397.411 87.5984C405.8 81.6758 415.084 73.6057 418.566 64.3856L416.909 56.5885L-76.9718 161.566Z" fill="#50E3C2" fill-opacity="0.15"/>
<path d="M-76.9718 161.566L-76.5366 163.613C-10.7049 169.906 57.8103 160.026 122.155 135.421C139.262 128.881 155.266 120.736 172.629 114.635C196.245 106.335 219.869 109.246 243.505 113.026C269.746 117.22 295.039 118.693 321.468 111.084C356.539 100.969 388.913 79.3738 417.31 58.476L416.909 56.5885L-76.9718 161.566Z" fill="#50E3C2" fill-opacity="0.15"/>
<path opacity="0.25" d="M-76.9301 161.762L-80.5083 144.928C-62.5556 132.673 -40.3608 124.166 -17.6451 120.923C11.7278 116.721 41.0387 121.11 70.3657 116.469C101.093 111.595 129.783 97.4236 157.444 84.558C184.562 71.9521 212.44 63.4112 242.615 61.4826C257.957 60.5022 272.742 61.8599 287.871 63.0153C328.379 66.1084 382.249 69.5921 412.894 37.7027L416.95 56.7844L-76.9301 161.762Z" fill="#50E3C2" fill-opacity="0.15"/>
<path opacity="0.5" d="M-76.9301 161.762L-78.1522 156.012C-74.4336 147.198 -69.9496 138.666 -62.8719 131.388C-44.6174 112.6 -17.6018 106.96 8.4205 108.811C22.0254 109.777 35.1668 113.035 48.4023 115.44C66.7123 118.77 86.8301 124.757 106.087 122.058C121.231 119.923 134.539 112.43 144.228 101.955C155.341 89.9425 165.084 73.9561 181.236 66.3418C197.045 58.8801 215.234 61.6582 232.143 64.7501C249.051 67.842 266.091 72.3581 283.591 70.1777C308.626 67.0799 328.444 51.9471 350.102 41.2772C361.862 35.4859 373.908 33.872 386.525 36.386C396.598 38.3842 408.362 41.9805 415.293 48.9873L416.95 56.7844L-76.9301 161.762Z" fill="#50E3C2" fill-opacity="0.15"/>
<path d="M-76.9301 161.762L-77.3653 159.714C-19.7845 127.189 46.8259 108.348 115.615 104.654C133.903 103.671 151.837 104.603 170.181 103.114C195.13 101.091 215.527 88.8223 235.583 75.7562C257.849 61.251 280.356 49.6177 307.595 45.8195C343.749 40.7955 382.108 47.3558 416.549 54.897L416.95 56.7844L-76.9301 161.762Z" fill="#50E3C2" fill-opacity="0.15"/>
</g>
<defs>
<clipPath id="clip0_653_236">
<rect width="504.914" height="102.468" fill="white" transform="translate(-89 104.978) rotate(-12)"/>
</clipPath>
</defs>
</svg>
