<svg width="412" height="140" viewBox="0 0 412 140" fill="none" xmlns="http://www.w3.org/2000/svg">
<g clip-path="url(#clip0_696_50)">
<path opacity="0.5" d="M-2.84009 112.93L-2.10064 116.409C3.40515 120.094 9.42624 123.4 17.1055 125.261C36.9164 130.07 59.7012 125.164 79.5014 116.49C89.8536 111.955 99.1678 106.314 108.807 101.107C122.141 93.9034 136.105 84.7257 151.957 80.5123C164.427 77.2064 177.04 77.3471 187.704 80.1722C199.934 83.4119 212.264 89.2105 227.137 88.579C241.698 87.9655 255.099 81.0968 267.408 74.4352C279.717 67.7736 291.708 60.3009 306.033 56.3246C326.52 50.6246 346.476 52.99 366.555 52.3927C377.457 52.0671 387.35 49.3915 396.474 44.3083C403.761 40.2549 411.898 34.8364 415.252 28.9928L414.249 24.2752L-2.84009 112.93Z" fill="#6D7E94"/>
<path d="M-2.84009 112.93L-2.60558 114.033C47.7013 114.272 100.862 105.495 151.536 88.8358C165.008 84.4073 177.711 79.1511 191.359 74.9515C209.922 69.2383 227.942 69.6825 245.93 70.6027C265.901 71.6238 285.275 71.1966 305.967 65.7251C333.426 58.4547 359.372 45.0111 382.226 32.1448L382.01 31.1277L-2.84009 112.93Z" fill="#C7C7C7" fill-opacity="0.2"/>
<path opacity="0.25" d="M0.182251 112.288L2.34963 122.484C19.8793 123.869 39.6002 121.973 58.1794 117.064C82.2061 110.72 103.661 99.7273 127.781 93.6358C153.056 87.2597 179.481 86.533 204.723 85.3992C229.468 84.2837 253.609 80.7363 277.59 72.9223C289.783 68.9492 300.857 63.8695 312.257 58.7986C342.782 45.2216 383.56 27.5082 416.706 35.8331L414.249 24.275L0.182251 112.288Z" fill="#6120FF" fill-opacity="0.3"/>
<path opacity="0.25" d="M-1.83264 112.716L-3.99724 102.532C11.4548 94.1431 30.2427 87.8572 49.2122 84.7839C73.7414 80.8048 97.8112 82.1131 122.323 77.8663C148.006 73.4098 172.443 63.3316 195.966 54.1056C219.026 45.0651 242.523 38.4886 267.608 35.8699C280.363 34.5385 292.545 34.6715 305.022 34.6638C338.427 34.6429 382.882 34.2279 409.78 13.16L412.234 24.7033L-1.83264 112.716Z" fill="#6120FF" fill-opacity="0.3"/>
<path opacity="0.5" d="M-4.8551 113.358L-5.59679 109.869C-2.06864 104.25 2.08441 98.7671 8.34067 93.9333C24.4773 81.4562 47.2874 76.67 68.9069 76.5544C80.21 76.4932 91.0156 77.8688 101.941 78.7138C117.055 79.884 133.549 82.6064 149.744 80.0106C162.481 77.9607 173.945 72.6935 182.534 65.7606C192.386 57.8098 201.287 47.4728 215.129 41.993C228.679 36.624 243.718 37.4595 257.675 38.5505C271.631 39.6416 285.628 41.6053 300.332 39.414C321.367 36.2923 338.632 25.9952 357.216 18.3636C367.306 14.2211 377.433 12.643 387.838 13.5847C396.145 14.3311 405.785 15.9821 411.228 19.9715L412.234 24.7034L-4.8551 113.358Z" fill="#627083" fill-opacity="0.8"/>
</g>
<defs>
<clipPath id="clip0_696_50">
<rect width="426.407" height="51.812" fill="white" transform="translate(-8 88.6548) rotate(-12)"/>
</clipPath>
</defs>
</svg>
